<svg width="15" height="15" viewBox="0 0 15 15" fill="none" xmlns="http://www.w3.org/2000/svg">
<path d="M10.2445 7.33988L5.84247 2.93788C5.77882 2.87817 5.69957 2.83769 5.61388 2.82113C5.52818 2.80458 5.43956 2.81263 5.35825 2.84434C5.27813 2.87802 5.20977 2.93465 5.16179 3.00712C5.11381 3.07958 5.08835 3.16462 5.08863 3.25153V12.0555C5.08835 12.1424 5.11381 12.2275 5.16179 12.2999C5.20977 12.3724 5.27813 12.429 5.35825 12.4627C5.41255 12.4843 5.4704 12.4955 5.52883 12.4957C5.64572 12.4952 5.75797 12.4499 5.84247 12.3692L10.2445 7.96717C10.3271 7.88371 10.3735 7.77099 10.3735 7.65353C10.3735 7.53606 10.3271 7.42334 10.2445 7.33988Z" fill="black"/>
</svg>
